<!-- <svg xmlns="http://www.w3.org/2000/svg" width="128" height="128" viewBox="0 0 128 128"><path fill="#E44D26" d="M19.037 113.876L9.032 1.661h109.936l-10.016 112.198l-45.019 12.48z"/><path fill="#F16529" d="m64 116.8l36.378-10.086l8.559-95.878H64z"/><path fill="#EBEBEB" d="M64 52.455H45.788L44.53 38.361H64V24.599H29.489l.33 3.692l3.382 37.927H64zm0 35.743l-.061.017l-15.327-4.14l-.979-10.975H33.816l1.928 21.609l28.193 7.826l.063-.017z"/><path fill="#fff" d="M63.952 52.455v13.763h16.947l-1.597 17.849l-15.35 4.143v14.319l28.215-7.82l.207-2.325l3.234-36.233l.335-3.696h-3.708zm0-27.856v13.762h33.244l.276-3.092l.628-6.978l.329-3.692z"/></svg> -->

<svg xmlns="http://www.w3.org/2000/svg" width="128" height="128" viewBox="0 0 32 32"><path fill="#e44f26" d="M5.902 27.201L3.655 2h24.69l-2.25 25.197L15.985 30z"/><path fill="#f1662a" d="m16 27.858l8.17-2.265l1.922-21.532H16z"/><path fill="#ebebeb" d="M16 13.407h-4.09l-.282-3.165H16V7.151H8.25l.074.83l.759 8.517H16zm0 8.027l-.014.004l-3.442-.929l-.22-2.465H9.221l.433 4.852l6.332 1.758l.014-.004z"/><path fill="#fff" d="M15.989 13.407v3.091h3.806l-.358 4.009l-3.448.93v3.216l6.337-1.757l.046-.522l.726-8.137l.076-.83zm0-6.256v3.091h7.466l.062-.694l.141-1.567l.074-.83z"/></svg>